<?xml version="1.0" encoding="UTF-8" ?>
<!DOCTYPE svg PUBLIC "-//W3C//DTD SVG 1.1//EN" "http://www.w3.org/Graphics/SVG/1.1/DTD/svg11.dtd">
<svg width="942pt" height="703pt" viewBox="0 0 942 703" version="1.1" xmlns="http://www.w3.org/2000/svg">
<g id="#ffffffff">
</g>
<g id="#2b9dd9ff">
<path fill="#2b9dd9" opacity="1.00" d=" M 704.38 240.41 C 706.81 235.33 712.55 232.65 718.02 232.83 C 783.01 232.86 848.00 232.84 912.99 232.84 C 919.23 232.56 925.65 236.49 927.36 242.66 C 928.46 247.37 928.11 252.25 928.12 257.05 C 928.12 318.70 928.18 380.35 928.10 442.01 C 928.02 445.60 927.65 449.46 925.38 452.41 C 922.61 456.33 917.74 458.29 913.03 458.17 C 903.65 458.06 894.26 458.29 884.89 458.08 C 883.25 458.13 882.38 456.57 881.38 455.56 C 872.00 444.66 862.07 434.22 852.91 423.14 C 866.43 417.12 877.45 406.06 883.75 392.71 C 892.62 374.03 893.86 352.77 892.27 332.45 C 890.37 314.60 884.72 296.22 871.90 283.12 C 861.06 271.59 845.65 265.25 830.11 263.48 C 813.25 261.49 795.63 262.42 779.72 268.75 C 764.90 274.76 752.57 286.62 746.07 301.24 C 737.76 319.52 736.25 340.16 737.97 359.94 C 739.85 379.57 746.77 399.80 761.94 413.14 C 776.96 426.75 798.00 430.90 817.71 430.53 C 825.21 439.52 832.28 448.88 839.95 457.73 C 835.00 458.43 830.00 458.08 825.03 458.14 C 789.00 458.15 752.97 458.16 716.95 458.14 C 712.06 458.07 707.17 455.60 704.73 451.28 C 702.35 447.27 702.82 442.43 702.79 437.97 C 702.80 376.97 702.79 315.97 702.80 254.97 C 702.94 250.12 702.10 244.91 704.38 240.41 Z" />
<path fill="#2b9dd9" opacity="1.00" d=" M 808.49 291.76 C 820.25 290.55 833.45 292.10 842.37 300.61 C 851.65 309.89 854.94 323.34 856.17 336.01 C 857.11 349.99 856.72 364.44 851.73 377.69 C 848.21 387.34 840.70 395.70 830.85 399.03 C 821.12 402.14 810.44 402.27 800.65 399.37 C 792.26 396.85 785.28 390.64 781.14 382.99 C 774.32 370.21 773.34 355.25 773.71 341.03 C 774.49 328.10 776.66 314.26 785.15 303.96 C 790.81 296.84 799.57 292.79 808.49 291.76 Z" />
<path fill="#2b9dd9" opacity="1.00" d=" M 552.81 391.83 C 560.56 387.17 570.22 387.27 578.90 388.59 C 585.58 389.58 592.10 393.85 594.34 400.43 C 597.13 408.45 597.21 417.32 595.40 425.56 C 594.40 430.48 591.33 434.77 587.07 437.42 C 589.19 440.87 592.24 443.69 594.04 447.35 C 590.71 448.54 587.56 450.32 584.05 450.94 C 580.94 447.79 578.65 443.93 575.87 440.49 C 567.48 440.98 558.05 441.29 551.07 435.81 C 544.95 430.89 543.90 422.38 543.71 415.04 C 543.67 406.67 545.12 396.71 552.81 391.83 M 563.45 397.69 C 561.02 398.65 558.94 400.58 558.07 403.08 C 555.95 408.46 556.17 414.40 556.56 420.07 C 556.91 424.41 558.62 429.36 563.08 431.01 C 567.79 432.55 573.13 432.58 577.77 430.75 C 582.12 428.70 583.29 423.48 583.57 419.11 C 583.74 413.05 584.29 406.44 581.03 401.02 C 577.06 395.71 569.18 395.76 563.45 397.69 Z" />
</g>
<g id="#231f1eff">
<path fill="#231f1e" opacity="1.00" d=" M 373.34 242.40 C 384.60 239.07 397.37 247.32 398.92 258.96 C 400.22 266.64 396.64 274.94 390.03 279.12 C 383.65 283.42 374.85 283.71 368.22 279.79 C 360.48 275.58 356.33 265.86 358.55 257.35 C 360.23 250.14 366.15 244.18 373.34 242.40 M 373.44 244.60 C 367.28 246.40 362.34 251.70 360.97 257.96 C 359.44 264.26 361.56 271.32 366.36 275.69 C 371.32 280.29 378.97 281.76 385.25 279.14 C 390.79 277.03 394.98 271.96 396.22 266.19 C 398.08 258.62 394.40 250.08 387.58 246.30 C 383.38 243.78 378.12 243.22 373.44 244.60 Z" />
<path fill="#231f1e" opacity="1.00" d=" M 367.74 251.28 C 373.06 251.16 378.76 250.22 383.87 252.09 C 388.43 254.22 387.08 261.24 382.29 262.16 C 385.63 265.44 385.97 271.05 390.44 273.27 C 388.34 273.23 386.26 273.19 384.17 273.17 C 382.06 269.17 381.04 262.96 375.75 262.25 C 376.10 265.98 374.00 272.13 379.31 273.04 C 375.51 273.35 371.68 273.38 367.89 272.99 C 369.41 272.42 371.68 272.02 371.68 269.95 C 371.85 264.65 371.91 259.32 371.64 254.03 C 371.50 252.03 369.11 251.91 367.74 251.28 M 375.72 251.68 C 375.70 255.11 375.69 258.55 375.71 261.98 C 379.30 262.67 383.19 259.88 382.35 255.99 C 382.12 252.60 378.57 251.57 375.72 251.68 Z" />
<path fill="#231f1e" opacity="1.00" d=" M 36.90 276.09 C 40.93 276.12 44.97 276.10 49.01 276.11 C 49.02 279.74 49.02 283.38 49.01 287.03 C 44.96 287.06 40.91 287.05 36.86 287.02 C 36.85 283.38 36.86 279.73 36.90 276.09 Z" />
<path fill="#231f1e" opacity="1.00" d=" M 53.99 276.11 C 58.03 276.10 62.07 276.12 66.11 276.09 C 66.15 279.73 66.14 283.38 66.13 287.04 C 62.09 287.05 58.04 287.06 54.00 287.03 C 53.99 283.39 53.99 279.75 53.99 276.11 Z" />
<path fill="#231f1e" opacity="1.00" d=" M 197.70 276.12 C 201.74 276.10 205.78 276.10 209.83 276.11 C 209.83 279.75 209.84 283.38 209.84 287.02 C 205.79 287.06 201.74 287.05 197.69 287.03 C 197.71 283.39 197.70 279.75 197.70 276.12 Z" />
<path fill="#231f1e" opacity="1.00" d=" M 214.78 276.19 C 218.84 276.03 222.90 276.12 226.96 276.09 C 226.95 279.74 226.96 283.38 226.97 287.03 C 222.93 287.05 218.89 287.04 214.85 287.05 C 214.83 283.43 214.86 279.81 214.78 276.19 Z" />
<path fill="#231f1e" opacity="1.00" d=" M 306.64 276.10 C 310.84 276.13 315.04 276.14 319.25 276.10 C 319.24 298.74 319.25 321.37 319.24 344.00 C 241.08 344.00 162.93 344.00 84.77 344.00 C 84.77 340.29 84.77 336.59 84.79 332.89 C 93.28 332.85 101.78 332.87 110.27 332.87 C 110.44 327.54 110.62 322.16 109.81 316.87 C 109.30 313.32 107.44 309.59 103.92 308.24 C 98.93 306.30 93.45 307.14 88.23 306.91 C 88.25 303.21 88.24 299.51 88.24 295.82 C 97.81 295.69 108.96 295.34 116.20 302.73 C 123.76 310.77 123.03 322.62 122.99 332.85 C 138.03 332.84 153.08 332.88 168.12 332.87 C 168.25 327.58 168.37 322.29 168.09 317.01 C 167.93 312.46 164.39 308.44 159.93 307.62 C 153.17 306.13 146.21 307.45 139.45 308.26 C 139.01 304.87 138.63 301.48 138.23 298.10 C 147.59 296.01 157.74 294.33 166.92 298.03 C 173.90 300.64 179.42 307.02 180.41 314.49 C 181.10 320.59 180.62 326.75 180.78 332.88 C 189.18 332.85 197.57 332.88 205.96 332.85 C 205.98 320.51 205.96 308.18 205.97 295.84 C 210.13 295.80 214.29 295.81 218.46 295.83 C 218.48 308.17 218.43 320.51 218.48 332.86 C 225.88 332.85 233.27 332.88 240.67 332.84 C 239.23 321.26 240.15 309.46 242.72 298.10 C 251.88 295.57 261.73 294.63 271.04 296.88 C 276.58 298.18 281.59 302.05 283.55 307.49 C 286.62 315.59 285.31 324.41 285.63 332.87 C 292.63 332.87 299.64 332.86 306.64 332.87 C 306.65 313.95 306.65 295.03 306.64 276.10 M 253.95 307.05 C 252.02 315.49 252.22 324.29 253.30 332.83 C 259.87 332.91 266.44 332.84 273.01 332.87 C 273.11 327.57 273.23 322.26 272.97 316.96 C 272.72 313.72 271.84 309.92 268.70 308.29 C 264.13 306.05 258.85 306.89 253.95 307.05 Z" />
<path fill="#231f1e" opacity="1.00" d=" M 333.49 276.13 C 337.66 276.11 341.83 276.12 346.00 276.12 C 345.97 298.75 345.99 321.37 345.99 344.00 C 341.82 344.00 337.65 344.01 333.49 344.00 C 333.50 321.37 333.49 298.75 333.49 276.13 Z" />
<path fill="#231f1e" opacity="1.00" d=" M 438.50 276.12 C 442.66 276.10 446.83 276.11 450.99 276.13 C 450.98 295.04 450.98 313.95 450.99 332.87 C 465.76 332.83 480.52 332.88 495.28 332.87 C 492.37 324.47 492.14 314.87 495.63 306.62 C 498.56 299.88 505.93 296.33 512.99 295.99 C 521.22 295.61 529.47 295.90 537.72 295.84 C 537.71 311.89 537.71 327.95 537.71 344.00 C 504.63 343.99 471.56 344.02 438.48 343.99 C 438.50 321.37 438.46 298.74 438.50 276.12 M 510.02 307.97 C 505.59 310.09 505.88 315.83 505.73 320.00 C 505.98 323.95 505.40 329.28 509.34 331.63 C 514.36 333.37 519.79 332.71 525.01 332.87 C 525.18 324.24 525.04 315.60 525.09 306.97 C 520.09 307.18 514.82 306.21 510.02 307.97 Z" />
<path fill="#231f1e" opacity="1.00" d=" M 503.15 276.11 C 507.20 276.10 511.24 276.11 515.29 276.10 C 515.28 279.74 515.28 283.38 515.28 287.03 C 511.23 287.05 507.19 287.06 503.15 287.02 C 503.14 283.38 503.14 279.75 503.15 276.11 Z" />
<path fill="#231f1e" opacity="1.00" d=" M 520.28 276.14 C 524.32 276.08 528.36 276.12 532.40 276.10 C 532.41 279.74 532.41 283.38 532.43 287.02 C 528.38 287.06 524.33 287.05 520.29 287.04 C 520.30 283.41 520.30 279.77 520.28 276.14 Z" />
<path fill="#231f1e" opacity="1.00" d=" M 585.51 276.21 C 589.70 276.17 593.89 276.17 598.09 276.18 C 598.08 279.82 598.09 283.46 598.08 287.10 C 593.87 287.12 589.66 287.16 585.46 287.07 C 585.53 283.44 585.51 279.82 585.51 276.21 Z" />
<path fill="#231f1e" opacity="1.00" d=" M 618.64 276.10 C 622.84 276.13 627.05 276.12 631.26 276.11 C 631.23 298.74 631.25 321.37 631.24 344.00 C 620.20 344.01 609.17 344.00 598.13 344.00 C 598.29 350.90 596.32 358.28 590.96 362.96 C 585.92 367.66 578.51 368.47 571.97 367.36 C 572.20 363.76 572.35 360.15 572.52 356.54 C 575.54 356.61 578.96 357.40 581.60 355.45 C 584.81 353.06 585.47 348.77 585.50 345.02 C 585.50 328.62 585.51 312.22 585.49 295.82 C 589.69 295.81 593.89 295.82 598.09 295.83 C 598.10 308.17 598.09 320.51 598.09 332.85 C 604.94 332.88 611.79 332.85 618.65 332.87 C 618.65 313.95 618.65 295.02 618.64 276.10 Z" />
<path fill="#231f1e" opacity="1.00" d=" M 646.50 276.12 C 650.66 276.10 654.82 276.11 658.99 276.13 C 658.98 298.75 658.99 321.38 658.98 344.01 C 654.81 344.00 650.64 344.01 646.48 343.99 C 646.50 321.37 646.46 298.75 646.50 276.12 Z" />
<path fill="#231f1e" opacity="1.00" d=" M 32.64 301.64 C 37.82 296.87 45.23 295.83 52.00 295.85 C 58.67 295.94 65.98 297.21 70.88 302.13 C 75.78 307.06 77.08 314.31 77.22 320.99 C 77.30 328.66 77.24 336.34 77.26 344.01 C 60.10 343.99 42.94 344.01 25.78 344.00 C 25.80 336.02 25.70 328.04 25.83 320.06 C 26.03 313.45 27.63 306.31 32.64 301.64 M 39.62 312.87 C 37.63 319.33 38.55 326.21 38.40 332.87 C 47.17 332.85 55.95 332.89 64.72 332.84 C 64.45 325.97 65.70 318.73 63.12 312.17 C 61.11 307.57 55.47 306.84 51.05 306.94 C 46.65 306.85 41.13 308.11 39.62 312.87 Z" />
<path fill="#231f1e" opacity="1.00" d=" M 555.50 345.01 C 555.53 328.61 555.45 312.21 555.54 295.81 C 559.72 295.82 563.90 295.81 568.08 295.82 C 568.08 312.56 568.13 329.29 568.06 346.02 C 568.11 354.18 563.86 362.76 556.12 366.09 C 551.68 368.06 546.66 368.08 541.94 367.35 C 542.22 363.74 542.35 360.12 542.52 356.51 C 545.50 356.61 548.85 357.41 551.48 355.52 C 554.80 353.20 555.46 348.78 555.50 345.01 Z" />
<path fill="#231f1e" opacity="1.00" d=" M 389.60 307.61 C 397.72 299.01 411.86 297.72 421.78 303.91 C 419.94 307.01 418.07 310.11 416.18 313.19 C 411.15 310.59 404.50 310.19 399.95 313.98 C 394.46 318.62 394.59 327.79 399.30 332.94 C 408.29 332.78 417.29 332.89 426.29 332.88 C 426.28 336.59 426.29 340.29 426.28 344.00 C 410.39 344.00 394.49 343.99 378.59 344.01 C 378.58 340.29 378.58 336.58 378.58 332.86 C 380.72 332.87 382.87 332.86 385.01 332.87 C 381.56 324.48 383.14 314.13 389.60 307.61 Z" />
<path fill="#231f1e" opacity="1.00" d=" M 25.55 388.88 C 29.87 388.87 34.18 388.88 38.50 388.88 C 38.53 400.59 38.44 412.31 38.54 424.03 C 38.40 427.27 40.57 430.36 43.74 431.18 C 48.29 432.43 53.38 432.49 57.80 430.74 C 60.50 429.72 62.06 426.89 61.97 424.08 C 62.08 412.35 61.99 400.62 62.00 388.89 C 66.34 388.87 70.68 388.87 75.02 388.88 C 74.92 400.60 75.07 412.32 74.94 424.04 C 74.91 428.90 72.97 433.98 68.78 436.73 C 63.28 440.33 56.42 440.68 50.05 440.82 C 43.68 440.64 36.77 440.34 31.35 436.57 C 27.27 433.80 25.57 428.71 25.59 423.95 C 25.51 412.26 25.60 400.57 25.55 388.88 Z" />
<path fill="#231f1e" opacity="1.00" d=" M 86.93 388.89 C 92.57 388.86 98.21 388.89 103.84 388.87 C 110.42 400.42 117.06 411.95 123.64 423.50 C 123.85 424.41 125.76 425.95 126.01 424.24 C 126.26 412.47 126.06 400.67 126.10 388.89 C 130.43 388.87 134.76 388.86 139.09 388.90 C 139.09 405.93 139.09 422.96 139.09 439.99 C 133.51 440.00 127.92 440.01 122.34 439.99 C 115.43 427.78 108.50 415.57 101.53 403.38 C 101.11 403.44 100.27 403.56 99.85 403.61 C 99.96 415.74 99.86 427.87 99.90 440.00 C 95.58 440.00 91.25 440.00 86.93 440.00 C 86.94 422.96 86.93 405.93 86.93 388.89 Z" />
<path fill="#231f1e" opacity="1.00" d=" M 151.95 388.88 C 156.26 388.88 160.57 388.87 164.89 388.89 C 164.91 405.93 164.88 422.96 164.90 440.00 C 160.58 440.01 156.25 440.00 151.93 440.00 C 151.93 422.96 151.89 405.92 151.95 388.88 Z" />
<path fill="#231f1e" opacity="1.00" d=" M 173.03 388.87 C 188.69 388.88 204.36 388.86 220.02 388.88 C 220.04 391.80 220.04 394.72 220.01 397.64 C 214.41 397.67 208.80 397.52 203.20 397.73 C 203.39 411.82 203.23 425.91 203.28 440.01 C 198.96 440.00 194.64 440.00 190.33 439.99 C 190.34 425.88 190.31 411.77 190.35 397.65 C 184.57 397.61 178.80 397.65 173.03 397.61 C 173.02 394.70 173.02 391.78 173.03 388.87 Z" />
<path fill="#231f1e" opacity="1.00" d=" M 227.94 388.89 C 242.16 388.90 256.39 388.79 270.61 388.95 C 270.58 391.79 270.57 394.63 270.57 397.48 C 260.69 397.42 250.82 397.49 240.94 397.44 C 240.86 401.60 240.89 405.76 240.91 409.92 C 248.93 409.95 256.95 409.89 264.97 409.96 C 264.96 412.74 264.96 415.52 264.96 418.31 C 256.95 418.39 248.95 418.32 240.94 418.34 C 240.85 422.69 240.90 427.05 240.91 431.40 C 250.80 431.40 260.70 431.39 270.59 431.41 C 270.58 434.27 270.58 437.14 270.58 440.00 C 256.36 440.01 242.14 439.99 227.93 440.01 C 227.94 422.97 227.91 405.93 227.94 388.89 Z" />
<path fill="#231f1e" opacity="1.00" d=" M 280.94 388.89 C 290.28 388.94 299.63 388.72 308.98 389.01 C 316.80 389.31 325.60 392.15 329.30 399.66 C 333.19 408.11 332.92 418.20 330.00 426.91 C 327.26 434.77 319.09 439.18 311.13 439.71 C 301.08 440.34 291.00 439.85 280.93 440.00 C 280.93 422.96 280.92 405.92 280.94 388.89 M 293.92 397.54 C 293.87 408.80 293.89 420.06 293.91 431.32 C 300.75 430.73 308.72 433.06 314.56 428.43 C 318.85 424.19 318.92 417.61 318.85 411.99 C 318.75 407.00 317.46 400.86 312.30 398.78 C 306.42 396.65 300.03 397.86 293.92 397.54 Z" />
<path fill="#231f1e" opacity="1.00" d=" M 379.09 388.77 C 393.64 388.76 408.20 388.79 422.75 388.76 C 422.59 392.01 423.20 395.38 422.51 398.56 C 413.75 408.79 404.72 418.81 395.89 428.98 C 395.61 429.54 395.04 430.66 394.75 431.22 C 404.09 431.39 413.43 431.25 422.76 431.30 C 422.78 434.22 422.78 437.14 422.79 440.07 C 408.22 440.07 393.66 440.09 379.09 440.05 C 379.28 436.87 378.63 433.52 379.42 430.44 C 388.16 420.20 397.15 410.16 405.96 399.98 C 406.51 399.24 406.88 398.41 407.06 397.49 C 397.73 397.38 388.40 397.47 379.07 397.44 C 379.08 394.55 379.09 391.66 379.09 388.77 Z" />
<path fill="#231f1e" opacity="1.00" d=" M 443.95 388.77 C 451.26 388.81 458.57 388.71 465.87 388.82 C 471.09 405.88 476.36 422.93 481.57 439.99 C 477.40 440.00 473.24 440.00 469.07 440.01 C 467.88 436.54 466.75 433.06 465.53 429.61 C 458.29 429.65 451.05 429.62 443.81 429.65 C 442.75 433.08 441.64 436.51 440.61 439.96 C 436.43 440.03 432.25 440.01 428.08 439.98 C 433.43 422.93 438.61 405.82 443.95 388.77 M 452.95 397.14 C 450.54 405.19 448.20 413.26 445.84 421.33 C 451.82 421.32 457.80 421.35 463.79 421.31 C 461.38 413.27 459.13 405.19 456.76 397.15 C 455.48 397.14 454.21 397.14 452.95 397.14 Z" />
<path fill="#231f1e" opacity="1.00" d=" M 488.75 388.78 C 497.81 388.82 506.87 388.66 515.93 388.86 C 521.29 389.20 527.23 389.86 531.37 393.65 C 535.73 397.80 536.08 404.48 535.09 410.06 C 534.27 414.99 530.44 418.82 525.88 420.55 C 529.10 427.03 532.36 433.50 535.57 439.99 C 531.16 440.01 526.76 440.02 522.36 439.97 C 519.70 434.24 516.93 428.55 514.25 422.83 C 509.93 422.81 505.61 422.82 501.29 422.84 C 501.27 428.56 501.29 434.29 501.28 440.01 C 497.10 440.00 492.92 440.00 488.75 440.00 C 488.74 422.93 488.74 405.86 488.75 388.78 M 501.31 397.20 C 501.27 402.91 501.25 408.63 501.31 414.35 C 506.53 414.18 511.80 414.77 516.98 413.94 C 524.62 412.50 524.89 399.15 517.08 397.72 C 511.90 396.70 506.55 397.47 501.31 397.20 Z" />
<path fill="#231f1e" opacity="1.00" d=" M 623.95 388.77 C 631.25 388.78 638.56 388.76 645.87 388.79 C 651.07 405.87 656.37 422.92 661.57 440.00 C 657.40 440.01 653.23 440.00 649.07 440.01 C 647.89 436.57 646.73 433.14 645.63 429.68 C 638.36 429.58 631.08 429.65 623.81 429.63 C 622.73 433.05 621.62 436.45 620.67 439.90 C 616.47 440.09 612.28 439.98 608.09 439.99 C 613.40 422.93 618.63 405.83 623.95 388.77 M 632.95 397.16 C 630.53 405.20 628.20 413.25 625.85 421.31 C 631.82 421.34 637.79 421.36 643.77 421.30 C 641.40 413.26 639.12 405.19 636.73 397.15 C 635.46 397.15 634.20 397.15 632.95 397.16 Z" />
</g>
</svg>
